<?xml version="1.0" standalone="no"?>
<!DOCTYPE svg PUBLIC "-//W3C//DTD SVG 20010904//EN"
 "http://www.w3.org/TR/2001/REC-SVG-20010904/DTD/svg10.dtd">
<svg version="1.0" xmlns="http://www.w3.org/2000/svg"
 width="512.000000pt" height="512.000000pt" viewBox="0 0 512.000000 512.000000"
 preserveAspectRatio="xMidYMid meet">

<g transform="translate(0.000000,512.000000) scale(0.100000,-0.100000)"
fill="#000000" stroke="none">
<path d="M1267 5106 c-23 -23 -29 -127 -17 -321 20 -351 71 -636 168 -940 40
-127 624 -1685 631 -1685 8 0 444 801 444 815 0 16 -1152 2128 -1166 2137 -19
12 -44 9 -60 -6z"/>
<path d="M3777 5088 c-13 -18 -437 -792 -942 -1719 l-918 -1687 -33 14 c-61
26 -168 36 -245 25 -154 -24 -256 -78 -374 -196 -124 -125 -205 -289 -235
-477 -15 -95 -8 -270 14 -353 23 -84 81 -196 128 -250 39 -44 40 -46 23 -65
-33 -36 -120 -60 -243 -67 -105 -6 -118 -8 -144 -32 -39 -35 -47 -93 -19 -137
22 -36 122 -82 249 -115 101 -27 262 -29 352 -5 112 30 216 92 302 179 56 56
99 89 150 114 87 44 209 157 273 253 160 241 195 564 88 812 l-25 57 61 89
c118 172 266 294 422 348 48 16 116 29 194 36 66 6 125 16 131 22 19 18 701
1857 745 2004 77 264 122 531 140 836 14 234 10 313 -16 332 -30 22 -52 17
-78 -18z m-999 -2582 c36 -19 78 -65 91 -99 24 -61 1 -158 -45 -199 -51 -45
-137 -60 -197 -34 -44 18 -94 77 -107 126 -20 75 23 169 92 203 41 20 130 22
166 3z m-975 -1022 c161 -55 262 -281 227 -510 -41 -272 -246 -498 -451 -498
-84 0 -182 44 -228 103 -76 96 -105 203 -99 365 7 172 65 310 180 424 117 118
247 159 371 116z"/>
<path d="M2645 2395 c-30 -30 -32 -64 -4 -99 26 -33 79 -36 109 -6 30 30 27
83 -6 109 -35 28 -69 26 -99 -4z"/>
<path d="M3067 1864 c-30 -39 -66 -51 -182 -57 -60 -3 -133 -13 -162 -22 l-51
-15 77 -79 c43 -43 104 -117 135 -165 l58 -86 -26 -66 c-42 -103 -56 -180 -56
-301 0 -201 52 -370 165 -528 72 -102 194 -204 296 -248 18 -8 72 -53 119 -99
94 -93 182 -145 300 -174 104 -26 288 -15 407 24 129 44 171 67 190 106 21 46
11 98 -26 129 -26 21 -42 25 -142 30 -122 6 -211 30 -244 67 -18 20 -18 21 13
53 48 50 100 144 129 232 35 109 43 294 18 416 -37 184 -110 324 -235 449 -68
69 -102 94 -172 129 -143 70 -276 84 -418 45 -64 -18 -57 -24 -120 97 -22 43
-44 80 -48 83 -4 2 -15 -7 -25 -20z m501 -404 c116 -62 221 -192 274 -340 20
-57 23 -83 23 -210 -1 -126 -4 -152 -23 -201 -50 -125 -120 -193 -232 -226
-136 -39 -308 51 -418 219 -155 238 -142 568 28 721 67 60 116 77 210 74 63
-3 86 -9 138 -37z"/>
</g>
</svg>
